PathFileType	3	(X/Y/Z)	D:\minhoCalibration\240510\subject2_KPNP\preferred\preferred01.trc
DataRate	CameraRate	NumFrames	NumMarkers	Units	OrigDataRate	OrigDataStartFrame	OrigNumFrames
200.0	200.0	18	10	mm	200.0	351	233	
Frame#	Time	Left_Ankle_Outer1			Left_Ankle_Inner1			Left_Knee_Outer1			Left_Knee_Inner1			Left_Wrist1			Right_Wrist1			Right_Knee_Inner1			Right_Knee_Outer1			Right_Ankle_Inner1			Right_Ankle_Outer1			
		X1	Y1	Z1	X2	Y2	Z2	X3	Y3	Z3	X4	Y4	Z4	X5	Y5	Z5	X6	Y6	Z6	X7	Y7	Z7	X8	Y8	Z8	X9	Y9	Z9	X10	Y10	Z10	
351	1.745	-445.06274	101.23204	-798.04163	-438.75131	111.30217	-741.40259	-280.89285	516.48212	-882.97607	-268.38467	499.0452	-787.58044	-354.72086	960.48798	-933.81311	-403.5603	1143.1516	-638.01257	-411.93567	841.7536	-229.42372	-430.86389	943.72516	-226.68022	-761.08002	806.01459	-465.79169	-787.43433	895.39124	-437.99539
352	1.75	-444.82968	102.25619	-796.98816	-437.26117	111.39243	-742.33673	-283.57935	517.51288	-884.2373	-268.27209	500.1629	-789.60162	-362.07956	959.13696	-933.05927	-397.18616	1146.1335	-637.52991	-392.36267	854.79102	-224.27679	-407.38046	956.62427	-223.4362	-761.89679	821.3631	-428.63684	-783.06097	912.39777	-401.64584
353	1.755	-444.5553	103.21573	-795.82635	-436.30655	112.58015	-740.92548	-286.34482	518.57904	-885.09039	-268.49359	501.52869	-791.13733	-369.26205	957.71497	-931.9884	-391.72363	1148.7294	-637.5434	-373.19543	867.42114	-220.35416	-384.78384	968.62921	-221.73308	-761.10059	836.53564	-389.01059	-777.40442	928.9986	-363.33557
354	1.76	-444.29361	104.03216	-794.34253	-436.32855	113.70739	-738.90729	-289.1925	519.79272	-885.36249	-269.10812	502.96265	-791.93127	-376.56509	955.95892	-930.23608	-386.31595	1150.8781	-638.28864	-354.6575	879.46686	-217.67775	-362.78922	979.9024	-221.9989	-758.04761	851.18182	-346.79831	-769.95258	944.95532	-323.4888
355	1.765	-444.30966	105.01598	-793.12366	-435.10046	114.65947	-737.9151	-292.03461	520.59039	-885.23169	-270.08612	504.54874	-792.12695	-383.25134	954.42468	-928.64923	-381.45035	1153.2222	-638.57086	-337.08432	890.91235	-216.02707	-342.63947	989.98798	-223.43463	-752.53625	866.27759	-302.32462	-760.37646	961.13531	-281.58029
356	1.77	-444.31342	105.7915	-791.48444	-435.1167	115.0574	-736.70593	-294.30801	521.99158	-884.82611	-271.27896	506.16019	-791.80267	-389.65005	952.87946	-926.89935	-376.96118	1155.1901	-639.15839	-320.64401	901.55518	-215.5551	-324.39383	999.13922	-225.94008	-743.80164	881.44238	-256.52979	-748.02972	977.13452	-238.42201
357	1.775	-444.46277	106.4902	-789.72711	-434.51877	116.53344	-734.08752	-296.52426	523.30109	-883.82074	-272.73999	507.58542	-790.8501	-396.09195	951.05383	-923.68927	-372.48724	1157.1006	-639.49908	-305.53851	911.53571	-216.2394	-308.25348	1007.4178	-229.18149	-731.50604	896.69928	-209.99785	-732.54962	992.99725	-194.34999
358	1.78	-444.68445	106.9408	-787.72137	-434.50748	115.86199	-733.53143	-298.37643	524.7218	-882.37177	-274.50281	508.76636	-789.24438	-401.27682	949.82831	-921.79059	-368.99954	1158.4579	-640.56842	-292.25339	920.68518	-218.23174	-294.38467	1014.8007	-232.92537	-715.57214	912.20898	-163.55511	-713.59113	1008.7172	-149.17557
359	1.785	-444.91125	107.27803	-785.58075	-434.18057	115.92442	-732.01312	-299.7153	526.15497	-880.91425	-276.24796	509.86969	-787.31311	-406.55856	948.04297	-919.35138	-365.62411	1159.6494	-641.41443	-281.3873	928.67944	-220.38161	-282.7215	1021.5914	-236.96399	-695.96252	927.62012	-116.91228	-690.97034	1024.1979	-103.93784
360	1.79	-445.19232	107.41636	-783.1488	-433.81198	117.23156	-728.25092	-301.78003	527.01282	-878.44751	-278.24719	510.60938	-784.86475	-410.76306	946.94647	-916.54871	-362.98984	1160.9598	-642.41376	-272.84491	935.58405	-222.79604	-274.01593	1027.4921	-240.66789	-671.9447	942.48279	-66.704147	-664.57532	1039.1104	-59.689331
361	1.795	-445.45703	107.57124	-780.86157	-433.51453	117.01514	-726.66437	-303.76535	527.4649	-876.05048	-280.19699	511.39133	-782.1532	-414.22073	946.01013	-913.95496	-360.77054	1161.9958	-643.23737	-266.32068	942.10492	-225.57069	-267.23096	1032.7941	-244.07451	-642.91553	957.07953	-18.418137	-634.25269	1053.6016	-16.665184
362	1.8	-445.72339	107.76725	-778.61481	-433.60403	116.54366	-724.55365	-305.14975	528.37415	-873.26794	-282.15198	511.80835	-779.21228	-417.23416	944.75757	-911.73248	-359.1127	1163.0244	-643.88123	-262.88766	948.18744	-228.25577	-262.63867	1037.3671	-247.16663	-611.29456	972.87042	21.665178	-599.57544	1067.4312	24.290787
363	1.805	-446.12506	107.88758	-776.19751	-433.30658	116.50819	-722.22778	-306.27115	529.05896	-870.67169	-284.07443	512.18024	-776.04956	-419.4841	943.84216	-909.5321	-357.96368	1164.0862	-644.35144	-262.18231	953.76971	-230.83081	-260.78894	1041.4148	-249.48918	-575.31714	981.45929	60.158756	-560.69891	1080.5242	62.606468
364	1.81	-446.49567	107.87396	-773.78491	-433.3147	116.54327	-719.47058	-307.3847	529.46631	-867.97552	-285.87686	512.42181	-772.84894	-420.89328	943.13593	-907.91858	-357.18872	1165.1199	-644.6676	-264.28607	959.11462	-233.03651	-261.73779	1045.1023	-250.97412	-537.31342	995.44208	97.809341	-517.5957	1092.9312	96.973564
365	1.815	-446.78403	107.70237	-771.29688	-433.44406	115.84377	-717.51678	-308.35019	529.73822	-865.26428	-287.61792	512.50427	-769.6156	-421.8533	942.47406	-906.06366	-356.74225	1166.2104	-644.72595	-269.51315	964.54272	-234.45839	-264.64935	1049.0206	-252.1897	-490.57562	1006.7025	129.26003	-471.37344	1104.0553	126.25716
366	1.82	-447.16556	107.68148	-768.9325	-433.34299	115.94741	-715.05231	-309.49387	529.82336	-862.22101	-289.21347	512.52911	-766.39642	-422.26309	941.98773	-904.07648	-356.61789	1167.3442	-644.3479	-276.35709	969.83551	-234.03842	-269.39139	1053.8124	-252.72542	-442.38522	1017.8976	156.30252	-422.58597	1113.1082	148.72581
367	1.825	-447.54095	107.75137	-766.7934	-433.39566	115.81927	-712.75592	-310.55161	529.82971	-859.29175	-290.79321	512.4726	-763.27374	-422.27832	941.57141	-901.43799	-356.84265	1168.5859	-643.29041	-282.39963	975.5661	-232.39365	-276.78363	1060.0393	-252.43678	-388.75076	1024.5055	172.68695	-372.6951	1119.1959	162.6958
368	1.83	-447.72263	107.66746	-764.75916	-433.22525	115.59328	-711.20068	-311.35034	529.98059	-856.68274	-292.23624	512.302	-760.23511	-421.44669	941.53186	-899.30792	-357.33597	1169.7563	-641.59869	-288.54099	980.9433	-229.46143	-282.30832	1069.0944	-250.53246	-341.71527	1029.4351	179.23494	-329.63812	1122.2863	166.96562
